<svg width="80" height="20" viewBox="0 0 80 20" fill="none" xmlns="http://www.w3.org/2000/svg">
<path fill-rule="evenodd" clip-rule="evenodd" d="M11.6892 2.24755C11.7358 2.36572 11.7503 2.51084 11.7793 2.80109C11.8342 3.34976 11.8616 3.62409 11.952 3.78837C12.1588 4.16401 12.5984 4.34609 13.0103 4.2267C13.1904 4.17449 13.4037 3.99993 13.8305 3.6508L13.8305 3.65079C14.0562 3.46613 14.169 3.37381 14.2854 3.32314C14.548 3.20887 14.8489 3.22388 15.0988 3.36371C15.2096 3.42571 15.3127 3.52881 15.5189 3.735L15.5189 3.73501L16.2636 4.47969L16.2636 4.4797C16.4699 4.68599 16.573 4.78914 16.6351 4.90001C16.7748 5.14986 16.7898 5.45065 16.6756 5.71316C16.6249 5.82965 16.5326 5.94255 16.3478 6.16836C15.9985 6.59529 15.8239 6.80875 15.7717 6.98896C15.6524 7.40071 15.8344 7.84013 16.2099 8.04694C16.3742 8.13746 16.6488 8.16491 17.1978 8.21982C17.4884 8.24888 17.6337 8.26341 17.752 8.31C18.0182 8.41488 18.2202 8.63808 18.2981 8.91344C18.3327 9.03576 18.3327 9.18173 18.3327 9.47368V10.5266C18.3327 10.8182 18.3327 10.964 18.2982 11.0862C18.2203 11.3618 18.0182 11.5852 17.7517 11.6901C17.6336 11.7365 17.4885 11.7511 17.1983 11.7801H17.1983C16.6498 11.8349 16.3755 11.8624 16.2112 11.9528C15.8356 12.1596 15.6535 12.5992 15.7729 13.0111C15.8251 13.1912 15.9997 13.4045 16.3488 13.8312L16.3488 13.8312L16.3488 13.8313C16.5335 14.057 16.6258 14.1699 16.6765 14.2863C16.7908 14.5489 16.7758 14.8497 16.6359 15.0996C16.5739 15.2104 16.4708 15.3135 16.2646 15.5198L15.5201 16.2643C15.3137 16.4707 15.2104 16.5739 15.0995 16.636C14.8497 16.7756 14.549 16.7906 14.2866 16.6765C14.17 16.6258 14.0571 16.5334 13.8311 16.3485C13.4039 15.999 13.1903 15.8242 13.01 15.772C12.5984 15.6529 12.1592 15.8349 11.9523 16.2101C11.8617 16.3746 11.8343 16.6492 11.7793 17.1985V17.1985C11.7503 17.4891 11.7357 17.6343 11.6891 17.7526C11.5843 18.0188 11.3611 18.2208 11.0858 18.2987C10.9634 18.3333 10.8174 18.3333 10.5254 18.3333H9.47282C9.18094 18.3333 9.03501 18.3333 8.91271 18.2987C8.63731 18.2209 8.41407 18.0188 8.30919 17.7525C8.26262 17.6343 8.2481 17.4891 8.21905 17.1986C8.16414 16.6495 8.13669 16.375 8.0461 16.2106C7.83929 15.8352 7.4 15.6533 6.98835 15.7725C6.80805 15.8246 6.59448 15.9994 6.16734 16.3489L6.16733 16.3489C5.94136 16.5338 5.82838 16.6262 5.71181 16.6769C5.44937 16.791 5.14871 16.776 4.89893 16.6363C4.78798 16.5743 4.68477 16.4711 4.47834 16.2647L3.73393 15.5203L3.73392 15.5202C3.5276 15.3139 3.42444 15.2108 3.36242 15.0999C3.22269 14.85 3.20769 14.5493 3.32187 14.2868C3.37254 14.1703 3.46496 14.0573 3.64978 13.8314L3.64979 13.8314C3.99903 13.4046 4.17364 13.1912 4.22586 13.0111C4.34526 12.5992 4.16317 12.1596 3.78751 11.9528C3.62324 11.8624 3.34895 11.8349 2.80038 11.7801H2.80037H2.80035C2.51021 11.7511 2.36514 11.7365 2.247 11.6901C1.98052 11.5852 1.77836 11.3618 1.70052 11.0862C1.66602 10.964 1.66602 10.8182 1.66602 10.5266L1.66602 9.47369C1.66602 9.18173 1.66602 9.03575 1.70061 8.91343C1.77848 8.63807 1.98047 8.41488 2.24671 8.31C2.36498 8.26341 2.51025 8.24888 2.80078 8.21983C3.35 8.1649 3.6246 8.13744 3.78901 8.04685C4.16433 7.84003 4.34627 7.40077 4.22713 6.98914C4.17493 6.80882 4.00019 6.59525 3.65071 6.16811C3.46587 5.94219 3.37344 5.82923 3.32276 5.71267C3.20864 5.45022 3.22363 5.14953 3.36331 4.89974C3.42534 4.78881 3.52854 4.68561 3.73495 4.4792L4.47952 3.73463C4.68572 3.52843 4.78881 3.42533 4.89962 3.36334C5.14952 3.22351 5.45042 3.2085 5.713 3.32277C5.82942 3.37343 5.94228 3.46577 6.16799 3.65044C6.59466 3.99954 6.80799 4.17408 6.98806 4.2263C7.39996 4.34574 7.83961 4.16363 8.04641 3.78791C8.13681 3.62367 8.16424 3.34942 8.21909 2.80094L8.21909 2.80093C8.2481 2.51082 8.2626 2.36577 8.30909 2.24764C8.41395 1.98113 8.63736 1.77895 8.91299 1.70112C9.03515 1.66663 9.18093 1.66663 9.47248 1.66663H10.5258C10.8174 1.66663 10.9633 1.66663 11.0855 1.70115C11.361 1.77899 11.5844 1.98112 11.6892 2.24755ZM10.0007 13.3333C11.8416 13.3333 13.334 11.8409 13.334 9.99998C13.334 8.15903 11.8416 6.66665 10.0007 6.66665C8.1597 6.66665 6.66732 8.15903 6.66732 9.99998C6.66732 11.8409 8.1597 13.3333 10.0007 13.3333Z" fill="#393E4F"/>
<path d="M31.13 15.168C30.3087 15.168 29.6087 15.0187 29.03 14.72C28.4607 14.4213 27.9707 14.02 27.56 13.516L28.652 12.494C28.9973 12.914 29.3753 13.2313 29.786 13.446C30.206 13.6607 30.682 13.768 31.214 13.768C31.8393 13.768 32.3107 13.628 32.628 13.348C32.9453 13.068 33.104 12.69 33.104 12.214C33.104 11.8313 32.992 11.528 32.768 11.304C32.544 11.08 32.1473 10.912 31.578 10.8L30.71 10.646C29.758 10.4687 29.044 10.156 28.568 9.708C28.092 9.26 27.854 8.644 27.854 7.86C27.854 7.43067 27.9333 7.04333 28.092 6.698C28.26 6.34333 28.4887 6.04933 28.778 5.816C29.0767 5.57333 29.436 5.38667 29.856 5.256C30.276 5.12533 30.7473 5.06 31.27 5.06C32.0073 5.06 32.6467 5.19067 33.188 5.452C33.7293 5.704 34.1913 6.07267 34.574 6.558L33.468 7.538C33.216 7.21133 32.908 6.95 32.544 6.754C32.18 6.558 31.7273 6.46 31.186 6.46C30.626 6.46 30.192 6.572 29.884 6.796C29.576 7.02 29.422 7.34667 29.422 7.776C29.422 8.18667 29.548 8.49467 29.8 8.7C30.052 8.896 30.444 9.04533 30.976 9.148L31.844 9.33C32.824 9.51667 33.538 9.834 33.986 10.282C34.4433 10.73 34.672 11.346 34.672 12.13C34.672 12.5873 34.5927 13.0027 34.434 13.376C34.2753 13.7493 34.042 14.0713 33.734 14.342C33.4353 14.6033 33.0667 14.8087 32.628 14.958C32.1893 15.098 31.69 15.168 31.13 15.168ZM39.3152 15.168C38.7925 15.168 38.3259 15.0793 37.9152 14.902C37.5045 14.7247 37.1545 14.4727 36.8652 14.146C36.5759 13.81 36.3519 13.4087 36.1932 12.942C36.0439 12.466 35.9692 11.9387 35.9692 11.36C35.9692 10.7813 36.0439 10.2587 36.1932 9.792C36.3519 9.316 36.5759 8.91467 36.8652 8.588C37.1545 8.252 37.5045 7.99533 37.9152 7.818C38.3259 7.64067 38.7925 7.552 39.3152 7.552C39.8472 7.552 40.3139 7.64533 40.7152 7.832C41.1259 8.01867 41.4665 8.28 41.7372 8.616C42.0079 8.94267 42.2085 9.32533 42.3392 9.764C42.4792 10.2027 42.5492 10.674 42.5492 11.178V11.752H37.5512V11.99C37.5512 12.55 37.7145 13.012 38.0412 13.376C38.3772 13.7307 38.8532 13.908 39.4692 13.908C39.9172 13.908 40.2952 13.81 40.6032 13.614C40.9112 13.418 41.1725 13.152 41.3872 12.816L42.2832 13.698C42.0125 14.146 41.6205 14.5053 41.1072 14.776C40.5939 15.0373 39.9965 15.168 39.3152 15.168ZM39.3152 8.742C39.0539 8.742 38.8112 8.78867 38.5872 8.882C38.3725 8.97533 38.1859 9.106 38.0272 9.274C37.8779 9.442 37.7612 9.64267 37.6772 9.876C37.5932 10.1093 37.5512 10.366 37.5512 10.646V10.744H40.9392V10.604C40.9392 10.044 40.7945 9.596 40.5052 9.26C40.2159 8.91467 39.8192 8.742 39.3152 8.742ZM46.2545 15C45.7225 15 45.3212 14.8647 45.0505 14.594C44.7798 14.314 44.6445 13.922 44.6445 13.418V8.966H43.5105V7.72H44.1265C44.3785 7.72 44.5512 7.664 44.6445 7.552C44.7472 7.44 44.7985 7.258 44.7985 7.006V5.732H46.1705V7.72H47.6965V8.966H46.1705V13.754H47.5845V15H46.2545ZM51.2721 15C50.7401 15 50.3387 14.8647 50.0681 14.594C49.7974 14.314 49.6621 13.922 49.6621 13.418V8.966H48.5281V7.72H49.1441C49.3961 7.72 49.5687 7.664 49.6621 7.552C49.7647 7.44 49.8161 7.258 49.8161 7.006V5.732H51.1881V7.72H52.7141V8.966H51.1881V13.754H52.6021V15H51.2721ZM55.1393 6.418C54.822 6.418 54.5887 6.34333 54.4393 6.194C54.2993 6.04467 54.2293 5.85333 54.2293 5.62V5.382C54.2293 5.14867 54.2993 4.95733 54.4393 4.808C54.5887 4.65867 54.822 4.584 55.1393 4.584C55.4567 4.584 55.6853 4.65867 55.8253 4.808C55.9653 4.95733 56.0353 5.14867 56.0353 5.382V5.62C56.0353 5.85333 55.9653 6.04467 55.8253 6.194C55.6853 6.34333 55.4567 6.418 55.1393 6.418ZM54.3693 7.72H55.8953V15H54.3693V7.72ZM58.0744 15V7.72H59.6004V8.924H59.6704C59.8291 8.532 60.0671 8.20533 60.3844 7.944C60.7111 7.68267 61.1544 7.552 61.7144 7.552C62.4611 7.552 63.0398 7.79933 63.4504 8.294C63.8704 8.77933 64.0804 9.47467 64.0804 10.38V15H62.5544V10.576C62.5544 9.43733 62.0971 8.868 61.1824 8.868C60.9864 8.868 60.7904 8.896 60.5944 8.952C60.4078 8.99867 60.2398 9.07333 60.0904 9.176C59.9411 9.27867 59.8198 9.40933 59.7264 9.568C59.6424 9.72667 59.6004 9.91333 59.6004 10.128V15H58.0744ZM72.5795 15.686C72.5795 16.442 72.2902 17.0113 71.7115 17.394C71.1328 17.7767 70.1902 17.968 68.8835 17.968C68.2862 17.968 67.7775 17.926 67.3575 17.842C66.9468 17.7673 66.6062 17.6553 66.3355 17.506C66.0742 17.3567 65.8828 17.1747 65.7615 16.96C65.6402 16.7453 65.5795 16.498 65.5795 16.218C65.5795 15.8167 65.6868 15.504 65.9015 15.28C66.1255 15.056 66.4335 14.902 66.8255 14.818V14.664C66.2748 14.4867 65.9995 14.1133 65.9995 13.544C65.9995 13.1707 66.1255 12.886 66.3775 12.69C66.6295 12.4847 66.9328 12.34 67.2875 12.256V12.2C66.8582 11.9947 66.5268 11.71 66.2935 11.346C66.0695 10.9727 65.9575 10.5387 65.9575 10.044C65.9575 9.29733 66.2048 8.69533 66.6995 8.238C67.2035 7.78067 67.9222 7.552 68.8555 7.552C69.3688 7.552 69.8075 7.62667 70.1715 7.776V7.58C70.1715 7.25333 70.2462 7.00133 70.3955 6.824C70.5542 6.63733 70.7968 6.544 71.1235 6.544H72.2435V7.776H70.7595V8.07C71.0862 8.28467 71.3382 8.56467 71.5155 8.91C71.6928 9.246 71.7815 9.624 71.7815 10.044C71.7815 10.7813 71.5295 11.3787 71.0255 11.836C70.5215 12.284 69.8028 12.508 68.8695 12.508C68.5148 12.508 68.1975 12.4707 67.9175 12.396C67.7308 12.4613 67.5675 12.5547 67.4275 12.676C67.2875 12.788 67.2175 12.9373 67.2175 13.124C67.2175 13.32 67.3062 13.46 67.4835 13.544C67.6608 13.628 67.9128 13.67 68.2395 13.67H70.0315C70.9275 13.67 71.5762 13.852 71.9775 14.216C72.3788 14.5707 72.5795 15.0607 72.5795 15.686ZM71.1515 15.854C71.1515 15.602 71.0535 15.4013 70.8575 15.252C70.6708 15.1027 70.3255 15.028 69.8215 15.028H67.3575C67.0215 15.224 66.8535 15.504 66.8535 15.868C66.8535 16.1667 66.9702 16.4047 67.2035 16.582C67.4462 16.7687 67.8522 16.862 68.4215 16.862H69.3735C70.5588 16.862 71.1515 16.526 71.1515 15.854ZM68.8695 11.402C69.3175 11.402 69.6628 11.304 69.9055 11.108C70.1575 10.9027 70.2835 10.59 70.2835 10.17V9.89C70.2835 9.47 70.1575 9.162 69.9055 8.966C69.6628 8.76067 69.3175 8.658 68.8695 8.658C68.4215 8.658 68.0715 8.76067 67.8195 8.966C67.5768 9.162 67.4555 9.47 67.4555 9.89V10.17C67.4555 10.59 67.5768 10.9027 67.8195 11.108C68.0715 11.304 68.4215 11.402 68.8695 11.402ZM76.025 15.168C75.3344 15.168 74.7557 15.0467 74.289 14.804C73.8224 14.5613 73.4164 14.2253 73.071 13.796L74.051 12.9C74.3217 13.2267 74.6204 13.4833 74.947 13.67C75.283 13.8473 75.6704 13.936 76.109 13.936C76.557 13.936 76.8884 13.852 77.103 13.684C77.327 13.5067 77.439 13.264 77.439 12.956C77.439 12.7227 77.3597 12.5267 77.201 12.368C77.0517 12.2 76.7857 12.0927 76.403 12.046L75.731 11.962C74.9844 11.8687 74.3964 11.654 73.967 11.318C73.547 10.9727 73.337 10.464 73.337 9.792C73.337 9.43733 73.4024 9.12467 73.533 8.854C73.6637 8.574 73.8457 8.34067 74.079 8.154C74.3217 7.958 74.6064 7.80867 74.933 7.706C75.269 7.60333 75.6377 7.552 76.039 7.552C76.6924 7.552 77.2244 7.65467 77.635 7.86C78.055 8.06533 78.4284 8.35 78.755 8.714L77.817 9.61C77.6304 9.386 77.383 9.19467 77.075 9.036C76.7764 8.868 76.431 8.784 76.039 8.784C75.619 8.784 75.3064 8.868 75.101 9.036C74.905 9.204 74.807 9.42333 74.807 9.694C74.807 9.974 74.8957 10.184 75.073 10.324C75.2504 10.464 75.535 10.5667 75.927 10.632L76.599 10.716C77.4017 10.8373 77.985 11.0753 78.349 11.43C78.7224 11.7753 78.909 12.242 78.909 12.83C78.909 13.1847 78.839 13.5067 78.699 13.796C78.5684 14.076 78.377 14.3187 78.125 14.524C77.873 14.7293 77.5697 14.888 77.215 15C76.8604 15.112 76.4637 15.168 76.025 15.168Z" fill="#393E4F"/>
</svg>
