<svg width="18" height="20" viewBox="0 0 18 20" fill="none" xmlns="http://www.w3.org/2000/svg">
<g id="glob&#209;&#131;_fill">
<path id="Subtract" fill-rule="evenodd" clip-rule="evenodd" d="M6.14556 3.86298C5.5313 5.21437 5.10725 7.06761 5.01758 9.16663H11.6488C11.5592 7.06761 11.1351 5.21437 10.5208 3.86298C9.79226 2.2601 8.95606 1.66663 8.3332 1.66663C7.71034 1.66663 6.87415 2.2601 6.14556 3.86298ZM5.06263 2.33292C4.90465 2.6019 4.75981 2.88396 4.62829 3.17331C3.90162 4.77198 3.43993 6.86864 3.34953 9.16663H0.0410156C0.346789 6.0869 2.32924 3.50042 5.06263 2.33292ZM11.6038 2.33292C11.7618 2.6019 11.9066 2.88396 12.0381 3.17331C12.7648 4.77198 13.2265 6.86864 13.3169 9.16663H16.6254C16.3196 6.0869 14.3372 3.50042 11.6038 2.33292ZM16.6254 10.8333H13.3169C13.2265 13.1313 12.7648 15.2279 12.0381 16.8266C11.9066 17.116 11.7618 17.398 11.6038 17.667C14.3372 16.4995 16.3196 13.913 16.6254 10.8333ZM8.3332 18.3333C8.95606 18.3333 9.79226 17.7398 10.5208 16.1369C11.1351 14.7855 11.5592 12.9323 11.6488 10.8333H5.01758C5.10725 12.9323 5.5313 14.7855 6.14556 16.1369C6.87415 17.7398 7.71034 18.3333 8.3332 18.3333ZM5.06263 17.667C2.32924 16.4995 0.346789 13.913 0.0410156 10.8333H3.34953C3.43993 13.1313 3.90162 15.2279 4.62829 16.8266C4.75981 17.116 4.90465 17.398 5.06263 17.667Z" fill="#393E4F"/>
</g>
</svg>
