<svg width="16" height="16" viewBox="0 0 16 16" fill="none" xmlns="http://www.w3.org/2000/svg">
<g id="Vector">
<path id="Vector_2" d="M11.1387 14.6929V13.6789H7.07157V9.69209C6.72414 9.62296 6.37672 9.59998 6.00876 9.59998C2.67748 9.59981 0 12.1117 0 15.2H11.2C11.1592 15.0616 11.1388 14.8773 11.1388 14.693L11.1387 14.6929Z" fill="#438EF3"/>
<path id="Vector_3" d="M10.4004 4.00008C10.4004 6.20922 8.60949 8 6.40039 8C4.19129 8 2.40039 6.20922 2.40039 4.00008C2.40039 1.79078 4.19129 0 6.40039 0C8.60949 0 10.4004 1.79078 10.4004 4.00008Z" fill="#438EF3"/>
<path id="Vector_4" d="M12.4901 15.2C12.5955 15.2 12.722 15.1355 12.8695 15.0066L15.7155 12.277C16.0948 11.9117 16.0948 11.3313 15.7155 10.966L12.8907 8.21499C12.743 8.08605 12.6166 8 12.5113 8C12.3426 8 12.2162 8.17196 12.2162 8.49428V10.4071L8 10.4073V12.8144H12.1951V14.7272C12.1949 15.0281 12.3215 15.2 12.4901 15.2L12.4901 15.2Z" fill="#438EF3"/>
</g>
</svg>
